<svg width="256" height="256" viewBox="0 0 256 256" fill="none" xmlns="http://www.w3.org/2000/svg">
<path d="M212.625 114.719C212.625 114.719 231.063 115.656 231.063 104.813C231.063 90.6563 206.5 77.9062 206.5 77.9062C206.5 77.9062 210.344 69.75 212.75 65.1875C215.156 60.625 221.906 42.875 222.5 38.8125C223.25 33.6875 222.094 32.0938 222.094 32.0938C220.438 43.0312 202.625 74.5312 201.188 75.5938C183.813 67.4688 159.938 65.1875 159.938 65.1875C159.938 65.1875 136.563 16 114.563 16C92.7501 16 92.8751 58.125 92.8751 58.125C92.8751 58.125 86.7189 46.1875 78.9689 46.1875C67.6564 46.1875 63.9376 63.25 63.9376 81.7812C41.6251 81.7812 22.8439 86.7812 21.1564 87.25C19.5001 87.7188 14.2189 91.5625 16.5939 91.0938C21.5001 89.5312 44.4376 85.9688 64.5001 87.7188C65.6251 105.313 75.9064 128.25 75.9064 128.25C75.9064 128.25 53.8439 160.188 53.8439 182.969C53.8439 188.969 56.4689 199.938 72.2814 199.938C85.5626 199.938 100.469 191.969 103.25 190.375C100.813 193.844 99.0001 200.5 99.0001 203.562C99.0001 206.062 100.5 213.156 110.719 213.156C123.844 213.156 138.531 203.094 138.531 203.094C138.531 203.094 152.406 226.094 164.25 236.625C167.438 239.469 170.5 240 170.5 240C170.5 240 158.719 228.688 143.219 199.5C157.625 190.625 172.625 169.625 172.625 169.625C172.625 169.625 174.406 169.688 188.094 169.688C209.531 169.688 239.969 165.188 239.969 148.156C240 130.594 212.625 114.719 212.625 114.719ZM215 104.125C215 110.344 209.094 110.281 209.094 110.281L204.594 110.563C204.594 110.563 196.063 106.094 190.875 103.969C190.875 103.969 198.906 91.625 200.781 88.1875C202.188 89.0313 215 97.0312 215 104.125ZM125.281 40.7812C135.375 40.7812 149.75 64.5312 149.75 64.5312C149.75 64.5312 127.313 62.5312 108.844 73.375C109.344 56.2812 115.094 40.7812 125.281 40.7812ZM85.3751 60.0312C88.5626 60.0312 91.6876 63.9375 93.0001 67.2188C93.0001 69.4062 94.1251 82.1562 94.1251 82.1562L75.6251 81.4375C75.6251 64.7813 82.1564 60.0312 85.3751 60.0312ZM83.4376 175.812C73.3126 175.812 71.2501 170.188 71.2501 165.125C71.2501 153.656 80.4064 137.594 80.4064 137.594C80.4064 137.594 90.6876 159.188 108.594 168.281C99.7189 173.5 92.3751 175.812 83.4376 175.812ZM116.281 198.406C109.188 198.406 108.313 193.813 108.313 192.75C108.313 189.469 110.906 185.562 110.906 185.562C110.906 185.562 122.813 177.531 123.563 176.656L132.375 193.094C132.375 193.094 123.375 198.406 116.281 198.406ZM138.406 189.469C134.094 181.938 130.906 174.062 130.906 174.062C130.906 174.062 148.625 175.188 158.156 165.375C152.219 168.031 142.75 171.406 131.75 170.375C154.75 150.125 168.188 135.438 179.531 120.281C178.563 119.094 173.375 115.469 172.094 114.875C165.25 123.125 138.594 151.594 113.906 165.688C82.6564 148.656 76.0939 98.5625 75.4376 88.1562L92.5001 89.7812C92.5001 89.7812 86.0939 101.156 86.0939 109.531C86.0939 117.875 87.0939 118.313 87.0939 118.313C87.0939 118.313 86.8751 103.75 95.8751 92.5C102.75 129 109.906 147.688 115.469 158.844C118.313 157.656 123.594 155.312 123.594 155.312C123.594 155.312 107.844 109.906 108.719 79.1875C115.875 75.375 126.469 71.4375 138.406 71.4375C169.844 71.4375 195.125 84.9375 195.125 84.9375L185.25 98.75C185.25 98.75 176.438 82.8125 163.969 79.9688C170.531 84.8438 177.906 91.3125 181.719 100.594C155.656 90.4375 124.219 85.0625 114.125 83.875C113.25 87.5938 113.375 92.9062 113.375 92.9062C113.375 92.9062 155.531 100.688 186.219 118.219C186 156.594 144.188 186.063 138.406 189.469ZM178.344 160.781C178.344 160.781 191.438 143.625 191.219 120.875C191.219 120.875 212.375 133.969 212.375 146.75C212.375 161 178.344 160.781 178.344 160.781Z" fill="black"/>
</svg>
