<svg width="256" height="256" viewBox="0 0 256 256" fill="none" xmlns="http://www.w3.org/2000/svg">
<path d="M238.736 135.142L228.509 127.552V21L132.251 25.6425L35.9924 21.0073V48.2002L21.0063 42.2479L20.8678 42.1897L20.722 42.1533C20.5325 42.1024 20.2409 42.0442 19.9348 42.0442H19.8692H19.7963C19.0091 42.0806 18.2802 42.4298 17.7554 43.012C17.2306 43.5941 16.9609 44.3436 17.0046 45.1222C17.0629 46.1118 17.6023 46.9996 18.4551 47.5017L34.7387 57.5508L35.9924 58.3221V128.244C36.1309 158.282 58.8362 183.721 81.228 202.153C103.27 220.192 125.574 231.573 128.38 232.977L130.487 234.047L131.61 234.607L132.397 235L136.114 232.97C137.973 232.046 160.758 220.57 183.267 202.146C203.639 185.388 224.151 162.801 227.817 136.263L235.806 140.192L236.01 140.294L236.228 140.352C236.52 140.432 236.804 140.469 237.067 140.469C237.934 140.447 238.67 140.119 239.21 139.537C239.749 138.962 240.033 138.213 239.997 137.427C239.96 136.503 239.494 135.659 238.736 135.142ZM39.3745 24.551L132.251 29.0189H132.338L225.135 24.5437V125.042L221.957 122.684L220.564 121.651L220.601 118.304V28.7861L132.295 33.0793L43.9958 28.7861V51.3729L39.3745 49.5392V24.551ZM187.319 51.8313V47.6909H202.539L193.683 68.6186H188.77L196.052 51.8313H187.319ZM127.171 95.9717C129.416 96.874 130.618 99.1443 130.618 99.1443L136.151 109.244L154.147 121.113C152.551 124.001 151.975 126.286 151.683 127.196C151.552 127.633 151.501 127.844 151.501 127.858L154.081 141.451C153.95 141.495 153.826 141.509 153.695 141.553C150.59 142.586 147.755 144.194 144.752 145.897L143.265 146.734L143.148 146.799C142.616 147.098 142.091 147.396 141.552 147.68L141.501 147.709L141.45 147.738C140.75 148.145 140.021 148.48 139.132 148.8C137.798 149.281 136.457 149.535 135.247 149.535C133.643 149.535 132.36 149.186 131.515 148.953C131.245 148.88 131.012 148.815 130.83 148.771L130.771 148.757L130.713 148.742C128.541 148.342 125.283 145.548 122.666 143.307C120.909 141.808 119.255 140.381 117.658 139.37C117.01 138.955 116.208 138.533 115.144 138.053L114.932 137.951C114.874 137.922 114.808 137.893 114.75 137.871L118.912 123.296C118.897 123.281 118.883 123.259 118.876 123.245L102.381 96.401C101.965 95.8625 102.031 95.1057 102.497 94.6473L113.751 73.7414C113.934 73.4576 114.211 73.2684 114.517 73.1884C114.619 73.1593 114.721 73.1447 114.83 73.1447C114.845 73.1447 114.859 73.1447 114.874 73.1447C115.114 73.1447 115.362 73.2102 115.574 73.3485L126.412 77.9109C126.427 77.9182 126.442 77.9255 126.442 77.9328L138.629 83.383C139.292 83.6523 139.591 84.4309 139.314 85.1149L134.263 93.1702C134.051 93.6795 133.57 93.9924 133.067 94.007C133.06 94.007 133.045 94.007 133.038 94.007C132.878 94.007 132.71 93.9779 132.557 93.9124L121.011 89.2917L119.269 92.1514C119.247 92.1587 121.062 92.8718 127.171 95.9717ZM186.867 159.883C187.13 159.883 187.414 159.854 187.698 159.825C187.99 159.795 188.281 159.766 188.558 159.766C189.222 159.766 189.812 159.934 190.067 160.661C190.599 162.153 188.777 163.863 188.391 165.209C188.23 165.762 188.311 166.505 188.114 167.079C187.29 169.401 185.439 171.416 184.243 173.548C183.959 173.534 183.565 173.41 183.31 173.265C182.064 172.588 186.131 167.858 186.459 167.29C187.239 165.966 179.695 165.966 179.258 165.748C177.683 164.976 176.51 162.961 175.905 161.389C175.285 159.774 174.768 156.797 176.867 156.048C177.151 155.946 177.443 155.917 177.727 155.917C177.931 155.917 178.135 155.932 178.339 155.946C178.536 155.961 178.747 155.975 178.944 155.975C179.236 155.975 179.527 155.946 179.812 155.844C180.577 155.56 181.24 154.673 181.736 154.112C179.52 152.337 177.45 151.697 175.409 151.697C171.896 151.697 168.463 153.603 164.512 154.978C161.83 155.488 159.344 155.888 158.236 156.113C153.513 157.074 148.804 161.12 145.072 162.357C145.072 162.357 140.305 164.147 135.385 164.147C134.904 164.147 134.423 164.132 133.949 164.096C128.563 163.674 125.049 163.638 116.973 156.834C112.775 153.516 111.696 151.129 100.762 148.837C95.9299 147.869 91.52 146.741 91.7824 144.049C91.8553 142.353 94.7345 140.745 93.9837 139.042C93.5901 138.147 93.2038 135.993 93.8598 134.589C92.4749 131.969 91.2066 131.395 87.46 130.23C85.4483 129.605 83.6479 129.583 83.4147 129.583C83.4001 129.583 83.3855 129.583 83.3855 129.583L83.2762 129.605C83.4219 130.354 83.4584 131.14 83.3272 131.889C82.7951 134.735 81.8475 137.798 79.1579 137.798C78.9538 137.798 78.7497 137.784 78.531 137.747C78.378 137.332 80.069 135.389 77.3648 132.217C75.7393 130.347 72.4447 124.998 76.009 122.452C76.2496 122.284 76.5557 122.088 76.9347 121.906C76.9785 121.877 77.0222 121.855 77.0659 121.833C77.9625 121.404 79.2235 121.003 80.8927 121.003C82.8097 121.003 85.2588 121.535 88.2983 123.128C89.0782 123.798 94.3336 124.547 97.9562 125.166C98.6268 125.275 99.2464 125.391 99.7712 125.5C103.715 126.279 106.725 129.932 103.955 132.675C102.155 134.152 99.2755 136.183 100.675 136.83C100.719 136.845 100.77 136.867 100.828 136.896C100.967 136.91 101.178 136.954 101.448 137.005C101.601 137.041 101.754 137.07 101.9 137.107C103.029 137.369 104.145 137.623 105.216 137.893C105.311 137.922 105.398 137.944 105.486 137.958C105.668 138.009 105.85 138.053 106.032 138.104C108.161 138.679 110.595 139.413 112.695 140.25C112.855 140.309 113.015 140.374 113.168 140.447C113.423 140.556 113.649 140.665 113.89 140.774C114.677 141.131 115.421 141.495 116.018 141.88C120.086 144.485 125.596 150.831 130.137 151.675C130.924 151.857 132.739 152.512 135.225 152.512C136.653 152.512 138.315 152.257 140.123 151.602C141.034 151.274 141.96 150.882 142.944 150.307C143.549 149.986 144.132 149.659 144.722 149.332C148.141 147.411 151.312 145.482 154.628 144.376C156.137 143.874 157.675 143.532 159.286 143.467C159.337 143.467 159.388 143.459 159.439 143.459C161.764 143.197 164.002 143.066 164.702 142.841C168.178 141.749 171.735 140.49 175.365 140.49C176.663 140.49 177.975 140.651 179.287 141.043C182.13 141.88 184.382 143.816 186.117 146.152C186.838 147.119 190.395 152.097 189.426 153.334C188.347 154.731 185.985 156.215 185.694 158.078C185.468 159.592 186.051 159.883 186.867 159.883ZM147.835 187.476C148.279 187.491 148.112 188.087 148.425 187.949C148.724 187.803 148.979 187.76 149.161 188.255C149.395 188.902 148.556 188.64 148.775 188.917C149.059 189.288 148.09 190.62 147.485 190.911C146.88 191.187 146.902 190.445 146.457 190.438C145.998 190.423 146.144 190.721 145.932 190.343C145.721 189.972 145.874 189.674 146.107 189.463C146.341 189.244 146.071 188.859 146.071 188.859L144.963 185.38L135.684 192.904L145.014 201.171C145.014 201.171 146.537 204.358 145.779 204.321C143.913 204.256 142.652 203.987 142.652 203.987L132.338 195.619L122.024 203.987C122.024 203.987 120.763 204.256 118.897 204.321C118.132 204.351 119.663 201.171 119.663 201.171L128.993 192.904L119.714 185.38L118.606 188.859C118.606 188.859 118.336 189.244 118.569 189.463C118.803 189.681 118.956 189.972 118.744 190.343C118.533 190.721 118.679 190.423 118.22 190.438C117.775 190.445 117.797 191.187 117.192 190.911C116.587 190.627 115.617 189.288 115.902 188.917C116.12 188.64 115.282 188.909 115.508 188.255C115.69 187.76 115.938 187.803 116.244 187.949C116.558 188.087 116.383 187.498 116.835 187.476C117.483 187.461 117.753 182.622 117.753 182.622L112.024 177.572L111.178 176.576C111.178 176.576 110.282 176.75 109.67 176.175C109.05 175.6 108.868 173.992 109.48 173.257C110.056 172.573 111.288 172.442 112.352 173.468C112.957 174.043 112.84 174.691 112.84 174.691L113.875 175.564L119.933 180.163C119.933 180.163 124.743 178.533 124.7 178.089C124.656 177.645 125.268 177.74 125.093 177.456C124.911 177.179 124.831 176.925 125.319 176.692C125.939 176.386 125.771 177.245 126.026 176.998C126.361 176.67 127.841 177.434 128.198 177.994C128.548 178.555 127.797 178.62 127.841 179.071C127.885 179.508 128.169 179.341 127.819 179.588C127.469 179.85 127.149 179.719 126.908 179.515C126.566 179.246 126.755 179.108 126.755 179.108L122.979 181.633L132.331 189.921L141.683 181.633L137.907 179.108C137.907 179.108 138.097 179.246 137.754 179.515C137.514 179.719 137.193 179.843 136.843 179.588C136.493 179.341 136.777 179.508 136.821 179.071C136.865 178.62 136.114 178.555 136.464 177.994C136.828 177.434 138.301 176.67 138.636 176.998C138.884 177.245 138.724 176.379 139.343 176.692C139.831 176.925 139.759 177.179 139.569 177.456C139.394 177.74 140.006 177.645 139.963 178.089C139.926 178.533 144.73 180.163 144.73 180.163L150.787 175.564L151.822 174.691C151.822 174.691 151.698 174.043 152.303 173.468C153.367 172.442 154.599 172.573 155.175 173.257C155.787 173.992 155.605 175.6 154.985 176.175C154.373 176.75 153.476 176.576 153.476 176.576L152.631 177.572L146.902 182.622C146.924 182.615 147.193 187.461 147.835 187.476ZM135.72 66.0063L129.328 76.6011L127.761 75.9317L127.396 75.7716L125.756 75.0803L117.469 71.5438L124.641 59.4864C124.889 59.0789 125.312 58.8533 125.756 58.846C125.771 58.846 125.786 58.846 125.8 58.846C126.019 58.846 126.245 58.9042 126.449 59.0207L135.247 64.2162C135.874 64.5801 136.085 65.3878 135.72 66.0063ZM138.031 67.4762C138.272 67.0832 138.687 66.8649 139.124 66.8504C139.139 66.8504 139.154 66.8504 139.168 66.8504C139.401 66.8504 139.635 66.9086 139.846 67.0396L147.886 71.7913C148.513 72.1624 148.702 72.9774 148.323 73.5886L147.944 74.1998C147.922 74.2362 147.886 74.2581 147.864 74.3017L144.795 79.2353L141.923 83.8342C141.887 83.7105 141.843 83.5868 141.8 83.4703C141.515 82.7645 141.027 82.1678 140.4 81.753C140.13 81.5347 139.839 81.3383 139.496 81.2L131.712 77.7145L138.031 67.4762ZM137.732 95.0403L141.887 88.4549L149.89 75.5606C150.138 75.1604 150.568 74.9421 151.02 74.9421C151.027 74.9421 151.035 74.9421 151.042 74.9421C151.268 74.9421 151.501 75.0076 151.713 75.1385L158.943 79.3881C159.556 79.7665 159.745 80.5742 159.366 81.1855L152.179 92.6244L151.231 94.1598L147.303 100.418C147.244 100.52 147.201 100.621 147.15 100.723C146.895 101.08 146.501 101.291 146.085 101.291C146.085 101.291 146.078 101.291 146.071 101.291C145.838 101.291 145.597 101.225 145.378 101.094L138.155 96.8376C137.543 96.4665 137.346 95.6588 137.732 95.0403ZM149.322 101.684L160.554 83.8051C160.817 83.4121 161.247 83.1865 161.677 83.1865C161.684 83.1865 161.684 83.1865 161.691 83.1865C161.932 83.1865 162.172 83.2448 162.384 83.3757L168.113 86.7885C168.74 87.1669 168.929 87.9746 168.55 88.5858L157.303 106.465C157.055 106.858 156.618 107.083 156.181 107.083C156.173 107.083 156.166 107.083 156.159 107.083C155.933 107.083 155.692 107.025 155.488 106.894L149.745 103.474C149.125 103.11 148.935 102.302 149.322 101.684ZM19.6651 45.4569C19.5047 45.3623 19.4027 45.2023 19.3881 45.0131C19.3735 44.7147 19.6068 44.4528 19.9202 44.4382C19.9275 44.4382 19.9275 44.4382 19.9348 44.4382C20.0077 44.4382 20.1316 44.4673 20.1316 44.4673L44.003 53.9415L84.1217 69.8629L82.919 47.5599L115.34 70.4742C115.34 70.4742 114.969 70.3214 114.415 70.3214C114.152 70.3214 113.846 70.3577 113.526 70.4523C112.52 70.758 112.286 71.4056 112.286 71.4056L111.747 72.4389C111.732 72.4534 111.718 72.4607 111.711 72.4753L111.667 72.548L111.63 72.6208L105.704 83.6304L97.4533 77.8746L93.9691 91.2928L43.9958 60.4687L39.3745 57.6163L35.9924 55.5279L19.6651 45.4569ZM181.116 199.548C158.943 217.711 136.333 229.106 134.547 229.994L132.324 231.202L132.01 231.041L130.961 230.51V230.503L130.02 230.03C128.06 229.062 105.5 217.674 83.3782 199.548C61.2124 181.371 39.3964 156.455 39.3745 128.244V60.4178L42.742 62.4917L43.9958 63.2703V65.9845V128.273C43.9958 182.062 126.937 224.238 130.472 226.006L132.375 226.974L134.139 226.006C137.565 224.281 216.096 184.303 220.346 132.595L223.837 134.313L224.595 134.691C221.592 160.232 201.584 182.775 181.116 199.548ZM237.089 138.104C237.081 138.104 237.081 138.104 237.074 138.104C236.994 138.104 236.87 138.067 236.87 138.067L228.167 133.789L224.887 132.173L220.462 129.997L185.41 112.759L181.874 136.474L138.658 107.614L132.739 96.7285L151.683 107.418L154.249 108.946C154.592 109.157 154.985 109.288 155.393 109.368C155.678 109.448 155.969 109.506 156.261 109.506C156.268 109.506 156.275 109.506 156.29 109.506C157.136 109.506 157.937 109.164 158.55 108.582C158.848 108.335 159.118 108.058 159.322 107.724L160.7 105.533L162.019 103.59L171.998 111.813L175.169 90.9217L220.528 124.598L237.358 137.092C237.504 137.187 237.606 137.347 237.621 137.536C237.628 137.842 237.387 138.096 237.089 138.104Z" fill="black"/>
</svg>
