<svg width="256" height="256" viewBox="0 0 256 256" fill="none" xmlns="http://www.w3.org/2000/svg">
<path d="M128 21.333C69.1197 21.333 21.333 69.2263 21.333 128.213C21.333 187.2 69.1197 234.666 128 234.666H135.04C85.973 231.36 47.6797 190.4 47.4663 141.226C47.4663 89.3863 89.493 47.573 141.333 47.573C190.186 47.7863 230.72 85.333 234.666 133.973V128C234.666 69.1197 186.88 21.333 128 21.333Z" fill="black"/>
<path d="M191.893 145.813C172.907 145.813 157.653 130.56 157.547 111.786C157.547 97.2798 166.507 84.4798 180.053 79.4664C169.493 73.9198 157.76 70.9331 145.707 71.1464C104.427 71.1464 71.04 104.64 71.04 145.813C71.04 186.986 104.533 220.48 145.707 220.48C186.88 220.48 220.373 186.986 220.373 145.813C220.587 141.013 220.16 136.32 219.307 131.52C213.547 141.013 202.987 146.346 192 145.813H191.893Z" fill="black"/>
</svg>
