<svg width="256" height="256" viewBox="0 0 256 256" fill="none" xmlns="http://www.w3.org/2000/svg">
<path d="M127.665 21C186.574 21.0001 234.33 68.7558 234.33 127.665C234.33 186.574 186.574 234.33 127.665 234.33C68.7558 234.33 21.0001 186.574 21 127.665C21 68.7557 68.7557 21 127.665 21ZM88.3477 126.147C88.196 119.578 83.9101 109.81 69.0654 109.81C57.9156 109.81 48.6262 114.54 48.626 128.81C48.626 140.115 54.8734 147.233 69.3525 147.233C86.3412 147.233 87.482 136.079 87.4893 136.006H79.2305C79.2143 136.06 77.4206 142.051 68.8486 142.051C61.8356 142.051 56.7922 137.314 56.792 130.673H88.3477V140.07C88.3477 142.554 88.1726 146.031 88.1699 146.084H96.0469C96.052 146.038 96.3291 143.539 96.3291 141.255C96.3625 141.307 100.265 147.344 110.803 147.344C119.813 147.344 126.487 142.285 128.711 134.487C128.67 134.885 128.649 135.295 128.649 135.716C128.649 143.308 134.996 147.437 143.573 147.438C155.263 147.438 159.03 140.979 159.03 140.979C159.03 143.521 159.224 146.03 159.228 146.08H166.649C166.644 146.025 166.362 142.925 166.362 140.935V123.581C166.362 121.296 165.991 119.373 165.334 117.76L180.343 145.927L173.273 159.329H182.198L206.694 111.252H198.185L184.737 138.255L171.258 111.252H161.866L164.233 115.695C161.047 111.002 154.799 109.81 149.089 109.81C132.319 109.81 131.24 118.993 131.239 120.461H139.588C139.594 120.395 140.079 115.099 148.513 115.099C154.028 115.099 158.3 117.623 158.301 122.475V124.201H148.513C137.701 124.201 131.129 126.834 129.228 132.162C129.417 130.997 129.516 129.782 129.516 128.524C129.515 118.214 122.563 109.921 110.822 109.921C99.869 109.921 96.4365 115.816 96.4111 115.859V95.9961L88.3477 95.9932V126.147ZM158.301 131.689C158.301 134.693 156.447 142.16 145.536 142.16C139.561 142.16 136.998 139.179 136.998 135.719C136.998 129.428 145.626 129.386 158.301 129.386V131.689ZM108.787 115.37C116.355 115.37 121.165 120.986 121.165 128.524C121.165 136.605 115.608 141.891 108.841 141.892C100.765 141.892 96.4063 135.586 96.4062 128.595C96.4088 122.082 100.317 115.37 108.787 115.37ZM68.7783 115.136C75.4536 115.136 80.0057 119.226 80.0059 125.354H56.9766C56.9743 118.85 62.9154 115.136 68.7783 115.136Z" fill="black"/>
</svg>
