<svg width="256" height="256" viewBox="0 0 256 256" fill="none" xmlns="http://www.w3.org/2000/svg">
<path d="M58.4445 29C47.1432 29 43 33.1887 43 44.4989V181.131C43 182.424 43.0678 183.612 43.1665 184.713C43.4562 187.194 43.4562 189.614 45.7621 192.317C45.9841 192.639 48.3023 194.347 48.3023 194.347C49.5539 194.959 50.417 195.411 51.8289 195.986L120.358 224.794C123.891 226.409 125.407 227.09 127.972 226.991H128.003C130.599 227.09 132.115 226.415 135.648 224.794L204.14 195.986C205.589 195.411 206.415 194.953 207.698 194.347C207.698 194.347 210.016 192.571 210.238 192.317C212.55 189.614 212.55 187.194 212.834 184.713C212.932 183.618 213 182.43 213 181.168V44.5051C213 33.1949 208.826 29.0062 197.556 29.0062L58.4445 29ZM168.239 54.646H173.819C183.135 54.646 187.697 59.1936 187.697 68.6724V84.1713H176.396V69.2787C176.396 66.2532 175.015 64.8672 172.086 64.8672H170.162C167.148 64.8672 165.766 66.2532 165.766 69.2787V117.223C165.766 120.249 167.148 121.635 170.162 121.635H172.314C175.2 121.635 176.581 120.249 176.581 117.223V100.079H187.882V117.774C187.882 127.209 183.264 131.856 173.917 131.856H168.239C158.861 131.856 154.262 127.179 154.262 117.774V68.7528C154.262 59.3173 158.855 54.646 168.239 54.646ZM68.0441 55.3018H93.6369V65.8386H79.5365V87.2958H93.1251V97.8079H79.5365V120.682H93.8341V131.225H68.0441V55.3018ZM99.4139 55.3018H117.466C126.807 55.3018 131.431 59.9731 131.431 69.4086V89.5851C131.431 99.0206 126.801 103.667 117.466 103.667H110.949V131.219H99.4139V55.3018ZM136.635 55.3018H148.127V131.225H136.635V55.3018ZM110.912 65.5107V93.4769H115.666C118.558 93.4769 119.939 92.0662 119.939 89.0283V69.9531C119.939 66.9276 118.558 65.5045 115.666 65.5045L110.912 65.5107ZM79.2159 149.261H80.9175L81.306 149.329H81.9225L82.2431 149.428H82.5637L82.8535 149.521L83.1741 149.589L83.4269 149.657L84.0003 149.787L84.327 149.879L84.549 149.947L84.8018 150.046L85.1224 150.145L85.3443 150.238L85.6711 150.368L85.9609 150.498L86.2136 150.653L86.5034 150.783L86.7254 150.937L87.0522 151.104L87.3049 151.259L87.5577 151.389L87.8105 151.581L88.0756 151.748L88.2976 151.94L89.0683 152.528L88.871 152.781L88.649 153.004L88.4517 153.233L88.2298 153.487L88.0756 153.709L87.8783 153.938L87.6564 154.161L87.4591 154.415L87.3049 154.637L87.0768 154.903L86.8857 155.126L86.6637 155.38L86.4664 155.609L86.3123 155.862L86.0842 156.085L85.893 156.351L85.6711 156.574L85.4738 156.797L85.2518 156.642L84.9991 156.413L84.7339 156.258L84.2592 155.937L83.9694 155.77L83.7043 155.615L83.4145 155.448L83.1926 155.318L82.9398 155.194L82.4219 154.996L82.1013 154.941L81.8485 154.872L81.5587 154.804L81.232 154.736L80.9114 154.705H80.5908L80.2147 154.637H79.5981L79.2775 154.668H78.9569L78.6363 154.767L78.3835 154.835L78.0938 154.934L77.804 154.99L77.5389 155.12L77.2183 155.25L76.7743 155.572L76.5092 155.726L76.2873 155.924L76.0653 156.079L75.8372 156.277L75.6831 156.5L75.4179 156.722L75.0973 157.174L74.9432 157.428L74.8137 157.719L74.6596 157.948L74.4931 158.238L74.3945 158.529L74.2712 158.783L74.1725 159.105L74.1417 159.426L74.0492 159.723L73.9814 160.045V160.367L73.9506 160.688V161.431L73.9814 161.753V162.006L74.0122 162.328L74.0677 162.619L74.1664 162.873L74.1972 163.2L74.2958 163.454L74.3883 163.677L74.5178 163.999L74.6843 164.32L74.8076 164.549L75.1282 165.063L75.3255 165.316L75.4796 165.545L75.7447 165.737L75.8989 165.96L76.1208 166.158L76.6387 166.548L76.8607 166.671L77.1134 166.839L77.4094 166.968L77.73 167.092L77.9519 167.222L78.5932 167.414L78.8829 167.445L79.2035 167.544L79.5241 167.575H80.9052L81.2936 167.544H81.5834L81.9102 167.414L82.2308 167.383L82.5514 167.29L82.8042 167.222L83.0939 167.092L83.3467 166.968L83.6365 166.839L83.8338 166.709L84.0866 166.554V163.683H79.555V159.08H89.7958V169.394L89.5738 169.549L89.3519 169.74L89.1237 169.907L88.871 170.099L88.6182 170.229L88.3962 170.427L87.8783 170.749L87.5577 170.904L87.046 171.225L86.7192 171.355L86.4664 171.479L86.1767 171.609L85.5355 171.863L85.2827 171.992L84.697 172.184L84.4072 172.252L84.1174 172.351L83.7968 172.45L83.544 172.506L82.5822 172.704L82.2863 172.735L81.6451 172.803L81.2936 172.834L80.973 172.859L80.6216 172.89H79.0186L78.698 172.834H78.3774L78.0568 172.766H77.767L77.4464 172.667L76.5092 172.475L76.2564 172.376L75.9667 172.345L75.6461 172.215L75.0603 172.023L74.487 171.77L74.1664 171.64L73.9444 171.51L73.6238 171.386L73.3957 171.188L73.0751 171.064L72.8839 170.897L72.6312 170.743L72.1133 170.353L71.8605 170.186L71.6632 169.994L71.4104 169.796L70.9911 169.381L70.7692 169.183L70.5781 168.961L70.3499 168.732L70.1958 168.478L69.9985 168.286L69.8444 168.02L69.6471 167.767L69.4929 167.544L69.3265 167.29L69.1723 166.993L69.0429 166.74L68.9134 166.449L68.7901 166.195L68.5373 165.607L68.4387 165.385L68.3092 165.094L68.2414 164.803L68.1859 164.549L68.1181 164.228L68.0194 163.931L67.9516 163.609L67.9208 163.355L67.8653 163.033L67.7974 162.458L67.7296 161.815V160.107L67.7974 159.779V159.457L67.8961 159.135V158.814L67.9886 158.523L68.0872 158.201L68.2167 157.626L68.3092 157.304L68.4078 157.013L68.7962 156.141L68.9196 155.887L69.049 155.596L69.2155 155.299L69.3388 155.046L69.5053 154.823L69.8259 154.303L70.017 154.05L70.2143 153.827L70.3684 153.573L70.7877 153.152L70.9788 152.924L71.2069 152.701L71.3981 152.478L71.6632 152.28L72.1071 151.89L72.3599 151.698L72.625 151.531L72.8469 151.34L73.0997 151.173L73.3648 151.049L73.6546 150.882L73.9752 150.727L74.1972 150.56L74.5178 150.436L74.8076 150.306L75.0973 150.152L75.3625 150.084L75.6831 149.985L75.9358 149.855L76.2256 149.799L76.5154 149.7L76.836 149.632L77.1011 149.533L77.4217 149.465H77.7423L78.0321 149.372H78.3527L78.6733 149.304H78.9631L79.2159 149.261ZM177.771 149.329H179.472L179.861 149.397H180.471L180.792 149.49H181.143L181.464 149.589L182.037 149.719L182.358 149.787L182.647 149.842L182.974 149.941L183.264 150.04L183.517 150.108L183.807 150.201L184.127 150.3L184.38 150.43L184.701 150.554L184.997 150.684L185.286 150.851L185.508 150.975L185.798 151.142L186.088 151.265L186.353 151.432L186.643 151.624L186.865 151.791L187.383 152.181L187.635 152.336L187.438 152.589L187.284 152.855L187.093 153.078L186.895 153.332L186.741 153.623L186.575 153.889L186.384 154.111L186.186 154.365L186.032 154.631L185.835 154.885L185.681 155.108L185.484 155.361L185.329 155.658L185.132 155.912L184.941 156.135L184.744 156.388L184.59 156.654L184.337 156.456L184.041 156.302L183.819 156.135L183.566 155.98L183.276 155.85L183.011 155.683L182.721 155.559L182.5 155.429L182.179 155.306L181.951 155.176L181.698 155.077L181.125 154.885L180.483 154.687L179.522 154.495L179.201 154.464L178.615 154.396H177.943L177.592 154.464L177.271 154.532L176.981 154.6L176.729 154.724L176.501 154.854L176.248 155.077L176.057 155.367L175.927 155.664V156.432L176.094 156.784L176.217 156.982L176.414 157.174L176.735 157.341L176.988 157.496L177.277 157.626L177.598 157.75L178.017 157.849L178.239 157.948L178.504 158.016L178.825 158.084L179.078 158.176L179.367 158.245L179.719 158.344L180.039 158.442L180.391 158.535L180.742 158.603L181.032 158.702L181.384 158.795L181.704 158.863L181.994 158.931L182.962 159.222L183.215 159.321L183.535 159.42L183.825 159.544L184.146 159.711L184.787 159.965L185.077 160.132L185.595 160.453L186.069 160.806L186.365 160.998L186.587 161.221L186.809 161.487L187.037 161.709L187.191 161.932L187.42 162.254L187.574 162.483L187.703 162.804L187.826 162.996L187.925 163.318L188.024 163.584L188.092 163.875L188.215 164.518L188.246 164.84L188.277 165.131V165.904L188.246 166.257L188.178 166.9L188.11 167.222L188.018 167.513L187.95 167.835L187.851 168.156L187.759 168.447L187.629 168.676L187.5 168.967L187.346 169.221L187.148 169.45L186.828 169.963L186.439 170.415L186.217 170.569L185.964 170.798L185.767 170.99L185.514 171.182L185.262 171.312L185.009 171.51L184.713 171.665L184.14 171.955L183.819 172.085L183.529 172.209L183.209 172.308L182.919 172.407L182.654 172.475L182.012 172.599L181.79 172.667L181.47 172.735H181.149L180.859 172.803H180.539L180.218 172.871H177.931L176.969 172.772L176.648 172.704L176.359 172.673L175.718 172.549L175.366 172.481L175.076 172.413L174.756 172.314L174.429 172.246L174.139 172.153L173.819 172.054L173.498 171.924L173.245 171.832L172.925 171.733L172.604 171.603L172.376 171.479L172.055 171.38L171.802 171.213L171.482 171.089L171.229 170.922L171.001 170.767L170.68 170.6L170.458 170.477L170.206 170.279L169.953 170.124L169.688 169.926L169.466 169.734L169.213 169.536L168.985 169.381L168.732 169.153L168.929 168.899L169.151 168.676L169.342 168.447L169.571 168.194L169.725 167.971L169.922 167.717L170.144 167.488L170.335 167.265L170.563 167.012L170.717 166.783L170.945 166.56L171.137 166.306L171.334 166.078L171.556 165.824L171.71 165.601L171.938 165.372L172.16 165.118L172.382 165.316L172.678 165.508L172.9 165.7L173.22 165.867L173.442 166.034L173.732 166.226L173.997 166.393L174.287 166.517L174.509 166.684L174.799 166.777L175.119 166.907L175.385 167.037L175.674 167.129L175.927 167.259L176.248 167.358L176.538 167.451L176.858 167.55L177.179 167.581L177.475 167.68L177.795 167.711H178.147L178.436 167.804H180.169L180.459 167.748L180.779 167.68L181.001 167.649L181.266 167.55L181.488 167.426L181.778 167.228L181.945 167.006L182.068 166.752L182.167 166.455V165.712L182.037 165.422L181.883 165.168L181.686 164.976L181.396 164.778L181.174 164.685L180.884 164.555L180.564 164.426L180.212 164.271L179.984 164.203L179.731 164.135L179.411 164.036L179.189 163.98L178.868 163.881L178.547 163.85L178.221 163.72L177.9 163.689L177.549 163.596L177.259 163.528L176.938 163.429L176.618 163.361L176.297 163.269L176.007 163.17L175.687 163.101L175.434 163.002L174.848 162.811L174.528 162.681L174.207 162.588L173.566 162.322L173.276 162.167L172.955 162L172.733 161.845L172.437 161.678L172.216 161.524L171.926 161.357L171.506 160.936L171.285 160.744L170.896 160.292L170.73 160.07L170.606 159.847L170.409 159.55L170.317 159.327L170.021 158.554L169.965 158.232L169.897 157.941V157.651L169.829 157.329V156.011L169.897 155.367L169.965 155.101L170.021 154.811L170.119 154.557L170.187 154.235L170.317 154.012L170.44 153.685L170.569 153.431L170.693 153.109L170.859 152.886L171.081 152.633L171.248 152.367L171.5 152.144L171.691 151.921L171.889 151.655L172.179 151.432L172.376 151.265L172.629 151.074L173.14 150.752L173.43 150.585L174.016 150.294L174.269 150.201L174.558 150.102L174.879 149.972L175.2 149.879L175.428 149.811L175.718 149.743L175.97 149.675L176.26 149.607L176.581 149.539L177.222 149.483L177.518 149.452L177.771 149.329ZM101.825 149.551H107.639L107.904 150.139L108.027 150.393L108.126 150.715L108.255 151.005L108.348 151.259L108.514 151.55L108.705 152.138L108.872 152.429L109.124 153.004L109.192 153.258L109.704 154.421L109.803 154.712L109.932 154.978L110.086 155.268L110.154 155.559L110.321 155.881L110.376 156.172L110.672 156.747L110.795 156.976L110.925 157.298L111.023 157.62L111.116 157.842L111.282 158.164L111.381 158.43L111.504 158.752L111.603 158.975L111.732 159.296L112.022 159.872L112.115 160.163L112.183 160.46L112.312 160.75L112.466 161.004L112.596 161.326L112.725 161.617L112.818 161.87L113.083 162.458L113.175 162.749L113.305 163.04L113.403 163.33L113.527 163.584L113.693 163.881L113.816 164.172L113.946 164.426L114.014 164.747L114.266 165.323L114.396 165.589L114.488 165.88L114.754 166.455L114.908 166.777L114.975 167.03L115.142 167.358L115.197 167.581L115.327 167.903L115.493 168.224L115.617 168.447L115.715 168.769L115.845 169.035L115.937 169.357L116.104 169.579L116.295 170.223L116.424 170.452L116.548 170.774L116.714 171.027L116.844 171.349L116.899 171.64L116.998 171.893L117.127 172.184L117.281 172.45H110.863L110.709 172.184L110.61 171.893L110.481 171.603L110.358 171.281L110.29 171.027L110.025 170.452L109.932 170.186L109.679 169.61L109.581 169.357L109.451 169.035L109.26 168.447L109.131 168.194H100.203L100.08 168.484L99.9811 168.75L99.8516 169.072L99.7283 169.363L99.6605 169.617L99.531 169.938L99.4077 170.192L99.3091 170.483L99.1796 170.749L99.0563 171.071L98.9576 171.293L98.8282 171.615L98.7357 171.937L98.6062 172.166L98.5076 172.487H92.151L92.2435 172.19L92.5086 171.615L92.6011 171.293L92.6997 171.04L92.8662 170.749L92.9895 170.458L93.119 170.192L93.1868 169.901L93.3101 169.579L93.4766 169.326L93.5999 169.035L93.7972 168.447L94.0869 167.872L94.1856 167.581L94.3089 167.327L94.4075 167.03L94.796 166.164L94.9254 165.842L95.0179 165.589L95.1166 165.298L95.283 165.032L95.4063 164.71L95.505 164.419L95.6036 164.166L95.7269 163.844L95.8934 163.615L95.9921 163.293L96.1154 163.04L96.214 162.749L96.3435 162.427L96.4976 162.173L96.5963 161.852L96.7196 161.623L96.8182 161.301L96.9477 160.979L97.071 160.757L97.2005 160.435L97.2991 160.169L97.4224 159.847L97.5211 159.624L97.6876 159.303L97.8109 158.981L97.9403 158.727L98.0082 158.436L98.1315 158.139L98.2979 157.849L98.4212 157.595L98.4891 157.273L98.6185 156.982L98.748 156.716L99.0008 156.141L99.0933 155.887L99.3584 155.244L99.4817 155.015L99.6112 154.693L99.7098 154.439L99.8023 154.118L99.9318 153.827L100.098 153.573L100.222 153.251L100.32 153.023L100.419 152.701L100.542 152.447L100.709 152.156L100.807 151.835L100.9 151.569L101.029 151.247L101.153 151.024L101.319 150.702L101.418 150.381L101.51 150.158L101.64 149.836L101.825 149.551ZM119.877 149.719H126.234L126.431 149.972L126.751 150.492L126.906 150.783L127.072 151.005L127.226 151.296L127.393 151.55L127.547 151.847L127.713 152.101L127.867 152.323L128.034 152.614L128.188 152.88L128.416 153.134L128.509 153.388L128.706 153.678L128.86 153.944L129.057 154.167L129.187 154.458L129.341 154.712L129.538 154.978L129.631 155.231L129.859 155.522L130.334 156.296L130.463 156.549L130.654 156.803L130.821 157.057L130.975 157.354L131.462 158.121L131.616 158.418L131.783 158.671L131.974 158.418L132.103 158.09L132.294 157.867L132.461 157.576L132.615 157.354L132.744 157.032L132.966 156.803L133.133 156.512L133.262 156.289L133.416 156.023L133.614 155.733L133.768 155.51L133.934 155.188L134.088 154.965L134.286 154.668L134.409 154.446L134.575 154.124L134.73 153.932L134.896 153.666L135.087 153.344L135.254 153.122L135.377 152.831L135.574 152.602L135.728 152.28L135.895 152.088L136.086 151.835L136.252 151.513L136.407 151.284L136.573 150.993L136.727 150.77L136.894 150.449L137.085 150.22L137.214 149.929L137.381 149.706H143.836V172.716H137.794V159.179L137.64 159.408L137.442 159.729L137.288 159.921L137.091 160.175L136.968 160.497L136.77 160.726L136.616 160.948L136.419 161.27L136.098 161.722L135.907 161.975L135.741 162.297L135.55 162.526L135.383 162.749L135.26 163.071L135.063 163.293L134.908 163.522L134.711 163.844L134.557 164.067L134.36 164.32L134.206 164.611L134.076 164.84L133.885 165.094L133.718 165.385L133.527 165.607L133.33 165.873L133.207 166.127L133.04 166.418L132.849 166.647L132.652 166.9L132.529 167.222L132.3 167.414L132.177 167.668L131.98 167.996L131.826 168.218H131.696L131.505 167.927L131.339 167.661L131.184 167.371L131.018 167.148L130.827 166.857L130.66 166.603L130.469 166.337L130.303 166.084L130.149 165.793L129.982 165.57L129.76 165.273L129.631 165.019L129.44 164.729L129.273 164.506L129.119 164.215L128.922 163.949L128.768 163.627L128.57 163.405L128.416 163.114L128.25 162.848L128.096 162.557L127.898 162.334L127.744 162.043L127.547 161.79L127.424 161.524L127.226 161.27L127.072 160.979L126.875 160.757L126.721 160.46L126.523 160.206L126.4 159.915L126.172 159.692L126.049 159.395L125.851 159.142V172.71H119.914V149.923L119.877 149.719ZM148.386 149.719H166.469V154.91H154.391V158.616H165.242V163.516H154.391V167.445H166.623V172.667H148.417V149.917L148.386 149.719ZM104.648 156.772L104.55 157.063L104.457 157.329L104.328 157.651L104.198 157.941L104.106 158.232L103.841 158.808L103.717 159.129L103.619 159.395L103.52 159.717L103.397 159.94L103.298 160.262L103.169 160.583L103.045 160.812L102.947 161.134L102.823 161.388L102.725 161.709L102.558 162L102.49 162.254L102.367 162.576L102.238 162.873L102.139 163.126L102.016 163.448H107.312L107.189 163.126L107.09 162.835L106.837 162.248L106.738 161.957L106.609 161.703L106.516 161.381L106.387 161.091L106.288 160.8L106.165 160.534L106.066 160.243L105.937 159.921L105.844 159.668L105.579 159.092L105.524 158.795L105.394 158.504L105.265 158.183L105.172 157.96L104.907 157.316L104.815 157.026L104.648 156.772ZM95.2152 199.86H161.068L127.454 210.978L95.2152 199.86Z" fill="black"/>
</svg>
