<svg width="256" height="256" viewBox="0 0 256 256" fill="none" xmlns="http://www.w3.org/2000/svg">
<path d="M125.282 31V186.661H200.937L190.318 224.559H74.127L83.8184 204.733V51.0469L74.0264 31H125.282ZM70.4199 87.0908C61.8993 98.9781 57.3319 113.244 57.3643 127.869C57.3361 142.488 61.9032 156.746 70.4199 168.628V196.916C60.2779 188.522 52.1139 177.993 46.5098 166.08C40.9057 154.168 38 141.165 38 128C38.0001 114.835 40.9057 101.832 46.5098 89.9199C52.1139 78.0076 60.278 67.4786 70.4199 59.085V87.0908ZM138.7 39.1396C153.408 40.9942 167.425 46.473 179.491 55.084C191.558 63.695 201.296 75.1692 207.832 88.4746C214.368 101.78 217.497 116.5 216.937 131.313C216.376 146.127 212.146 160.57 204.624 173.344H180.971C185.588 167.907 189.339 161.791 192.092 155.211C196.211 145.425 198.056 134.831 197.488 124.229C196.921 113.626 193.955 103.291 188.815 94.001C183.676 84.7105 176.495 76.7067 167.814 70.5928C159.134 64.4788 149.179 60.4134 138.7 58.7031V39.1396Z" fill="black"/>
</svg>
